<svg width="294" height="25" viewBox="0 0 294 25" fill="none" xmlns="http://www.w3.org/2000/svg">
<path d="M11.5601 0.956246C14.7257 0.956246 17.4531 2.0821 19.7425 4.33382L16.478 7.59833C15.0931 6.23223 13.4632 5.54918 11.5883 5.54918C9.67578 5.54918 8.04588 6.23223 6.69862 7.59833C5.34194 8.95502 4.66359 10.5896 4.66359 12.5022C4.66359 14.4147 5.34194 16.0493 6.69862 17.406C8.03646 18.7627 9.66636 19.441 11.5883 19.441C13.0015 19.441 14.2876 19.0453 15.4464 18.2539C16.511 17.5285 17.3071 16.5958 17.8347 15.4558H11.3339V11.089H23.0353C23.3368 14.98 22.2298 18.1739 19.7143 20.6705C17.4437 22.9222 14.7209 24.0481 11.5459 24.0481C8.34265 24.0481 5.62458 22.9222 3.39171 20.6705C1.13057 18.4282 0 15.7055 0 12.5022C0 9.32716 1.13057 6.59967 3.39171 4.31969C5.634 2.04913 8.35207 0.913849 11.5459 0.913849L11.5601 0.956246Z" fill="#272525"/>
<path d="M31.4377 1.09757H36.0165V23.8785H31.4377V1.09757Z" fill="#272525"/>
<path d="M58.9467 1.04104V5.60571H49.7891V10.1986H56.6573V14.7633H49.7891V23.9068H45.2103V1.04104H58.9467Z" fill="#272525"/>
<path d="M82.2443 1.09757V5.63397H76.648V23.8785H72.0551V5.63397H66.4446V1.09757H82.2443Z" fill="#272525"/>
<path d="M96.9355 19.3986C97.595 19.3986 98.198 19.1678 98.7444 18.7062C99.3097 18.2351 99.5923 17.6934 99.5923 17.081C99.5923 16.1954 99.0647 15.517 98.0095 15.046C97.6609 14.8858 97.1852 14.7209 96.5822 14.5513L96.2148 14.4524L95.8756 14.3535C95.6118 14.2875 95.3951 14.2263 95.2255 14.1698C93.7369 13.661 92.5216 12.8743 91.5794 11.8097C90.5242 10.632 89.9966 9.30832 89.9966 7.83858C89.9966 5.91661 90.6797 4.27729 92.0458 2.92061C93.4025 1.57335 95.0418 0.899717 96.9638 0.899717C98.7067 0.899717 100.228 1.47442 101.528 2.62383C102.829 3.7544 103.596 5.17232 103.832 6.8776L99.2814 7.83858C99.2814 7.20735 99.0553 6.66562 98.6031 6.21339C98.1509 5.76116 97.6138 5.53505 96.992 5.53505C96.3514 5.53505 95.8049 5.76116 95.3527 6.21339C94.8911 6.67504 94.6602 7.22148 94.6602 7.85271C94.6602 8.73833 95.1596 9.44493 96.1582 9.97253C96.5257 10.1704 96.9826 10.3541 97.5291 10.5237C97.7081 10.5802 97.9342 10.6509 98.2074 10.7357L98.5324 10.8205L98.8433 10.9194C100.388 11.3622 101.651 12.1018 102.631 13.1381C103.714 14.2781 104.256 15.6018 104.256 17.1092C104.256 19.0029 103.521 20.6376 102.051 22.0131C100.61 23.3698 98.9187 24.0481 96.9779 24.0481C95.2067 24.0481 93.6239 23.4781 92.2295 22.3381C90.8351 21.1887 90.0061 19.7661 89.7423 18.0702L94.2928 17.1092C94.2928 17.7216 94.5754 18.2634 95.1407 18.7344C95.6872 19.1867 96.2948 19.4128 96.9638 19.4128L96.9355 19.3986Z" fill="#272525"/>
<path d="M137.214 6.93413C137.119 6.52901 136.917 6.18984 136.606 5.91661C136.267 5.63397 135.876 5.49265 135.433 5.49265C134.425 5.49265 133.836 5.94488 133.667 6.84933C133.619 7.09429 133.78 7.57007 134.147 8.27668C134.684 9.32245 135.249 10.241 135.843 11.0324C136.182 11.4941 136.644 12.0311 137.228 12.6435L138.005 13.449C138.335 13.7976 138.613 14.0897 138.839 14.3252C139.366 14.8999 139.781 15.3192 140.083 15.583C140.167 15.1779 140.224 14.6927 140.252 14.1274C140.262 13.9484 140.271 13.6893 140.28 13.3501L140.294 12.9403L140.309 12.5022L144.591 12.4456C144.525 15.1213 144.209 17.0857 143.644 18.3387L143.799 18.4377L143.969 18.5507C144.11 18.6355 144.233 18.7109 144.336 18.7768C144.638 18.9558 144.911 19.1066 145.156 19.2291C145.844 19.5682 146.451 19.7284 146.979 19.7095L146.965 23.9492C145.985 23.9492 145 23.7513 144.011 23.3556C143.634 23.1955 143.234 23.0023 142.81 22.7762C142.64 22.682 142.457 22.5784 142.259 22.4653C142.136 22.3899 141.967 22.2863 141.75 22.1544C141.486 22.0037 141.255 21.8388 141.058 21.6598C140.21 22.6302 139.032 23.3085 137.525 23.6948C136.451 23.968 135.48 24.1046 134.613 24.1046C132.494 24.1046 130.699 23.3886 129.229 21.9566C127.769 20.5433 127.039 18.8192 127.039 16.7842C127.067 15.4652 127.401 14.3959 128.042 13.5762C128.683 12.7566 129.356 12.0076 130.063 11.3292C130.129 11.2633 130.256 11.1596 130.444 11.0183C130.096 10.5378 129.775 9.90187 129.483 9.11047C129.163 8.25312 128.994 7.48999 128.975 6.82107C128.975 5.37959 129.554 4.07944 130.713 2.92061C131.222 2.41185 131.895 1.95491 132.734 1.54979C133.704 1.08815 134.604 0.857321 135.433 0.857321C136.997 0.857321 138.382 1.37079 139.588 2.39772C140.718 3.3587 141.444 4.55051 141.764 5.97314L137.214 6.93413ZM134.628 19.6248C135.089 19.6248 135.64 19.5211 136.281 19.3139C136.959 19.0877 137.379 18.8522 137.539 18.6072V18.6214C137.275 18.3953 136.644 17.83 135.645 16.9255C134.637 16.0211 133.817 15.046 133.186 14.0002C132.771 14.3017 132.362 14.655 131.957 15.0601C131.551 15.4652 131.363 16.0635 131.391 16.8549C131.391 17.2411 131.5 17.6463 131.716 18.0702C131.905 18.4282 132.131 18.7297 132.395 18.9747C132.837 19.4081 133.582 19.6248 134.628 19.6248Z" fill="#272525"/>
<path d="M181.774 15.8656L192.924 0.560547V23.8785H188.345V14.4383L181.774 23.5111L175.188 14.4383V23.8785H170.61V0.560547L181.774 15.8656Z" fill="#272525"/>
<path d="M215.868 1.04104V5.60571H206.711V10.1986H213.579V14.7633H206.711V19.3562H215.868V23.9068H202.132V1.04104H215.868Z" fill="#272525"/>
<path d="M224.214 1.09757H231.648C234.06 1.09757 236.048 1.87012 237.612 3.41523C238.375 4.17837 238.916 4.8991 239.237 5.57744C239.623 6.40653 239.816 7.40991 239.816 8.58758V9.18113C239.816 10.7168 239.336 12.163 238.375 13.5197C237.687 14.4807 236.778 15.1826 235.647 15.6254L240.947 23.8785H235.35L228.807 13.8023V23.8785H224.228L224.214 1.09757ZM232.086 11.9369C232.915 11.9369 233.626 11.6213 234.22 10.99C234.804 10.3588 235.096 9.60509 235.096 8.7289C235.096 7.89982 234.795 7.16966 234.192 6.53843C233.57 5.93546 232.628 5.63397 231.365 5.63397H228.793V11.9228H230.56V11.9369H232.086Z" fill="#272525"/>
<path d="M268.187 20.6705C265.926 22.9128 263.194 24.034 259.991 24.034C256.806 24.0246 254.088 22.9034 251.836 20.6705C249.575 18.4094 248.445 15.6866 248.445 12.5022C248.445 9.32716 249.575 6.59967 251.836 4.31969C254.107 2.04913 256.825 0.913849 259.991 0.913849L259.976 0.970378C263.104 0.970378 265.837 2.09624 268.173 4.34795L264.909 7.61247C263.533 6.25578 261.898 5.57744 260.005 5.57744C258.083 5.57744 256.453 6.25578 255.115 7.61247C253.758 8.98799 253.08 10.6226 253.08 12.5163C253.08 14.4289 253.758 16.0635 255.115 17.4201C256.462 18.7674 258.092 19.441 260.005 19.441C261.927 19.441 263.566 18.7627 264.923 17.406L268.187 20.6705Z" fill="#272525"/>
<path d="M281.112 1.09757V10.2128H288.729V1.09757H293.294V23.8785H288.729V14.7492H281.112V23.8785H276.547V1.09757H281.112Z" fill="#272525"/>
</svg>
